# xmcd
#
# Track frame offsets: 
#        150
#        18816
#        34155
#        50872
#        66218
#        82623
#        109111
#        124903
#        141817
#        165144
#        189108
#
# Disc length: 2731 seconds
#
# Revision: 0
# Processed by: cddbd v1.5.2PL0 Copyright (c) Steve Scherf et al.
# Submitted via: ExactAudioCopy v1.0b4
#
DISCID=820aa90b
DTITLE=Bill Johnson - Cold Outside
DYEAR=2016
DGENRE=Blues
TTITLE0=Baggage Blues
TTITLE1=Nine Dollar Bil
TTITLE2=Night Train
TTITLE3=Cold Outside
TTITLE4=True Love
TTITLE5=My Natural Ability
TTITLE6=Makes a Fella Nervous
TTITLE7=Free from My Trouble
TTITLE8=Angry Guitar
TTITLE9=Driftin' and Driftin'
TTITLE10=Angeleen
EXTD=
EXTT0=
EXTT1=
EXTT2=
EXTT3=
EXTT4=
EXTT5=
EXTT6=
EXTT7=
EXTT8=
EXTT9=
EXTT10=
PLAYORDER=
